# xmcd CD database file
#
# Track frame offsets:
#	150
#	18677
#	43826
#	61593
#	73752
#	97148
#	115357
#	141503
#	163250
#	179618
#	199793
#
# Disc length: 2940 seconds
#
# Revision: 0
# Processed by: cddbd v1.5.1PL0 Copyright (c) Steve Scherf et al.
# Submitted via: CDex 1.51
#
DISCID=ad0b7a0b
DTITLE=Fieldwork - Simulated Progress
DYEAR=2004
DGENRE=Jazz
TTITLE0=Headlong
TTITLE1=Transgression
TTITLE2=Trips
TTITLE3=Telematic
TTITLE4=Media Studies
TTITLE5=Gaud
TTITLE6=Transitions
TTITLE7=Peril
TTITLE8=Reprise
TTITLE9=Infogee Dub
TTITLE10=Durations
EXTD=YEAR: 2004
EXTT0=
EXTT1=
EXTT2=
EXTT3=
EXTT4=
EXTT5=
EXTT6=
EXTT7=
EXTT8=
EXTT9=
EXTT10=
PLAYORDER=
